<svg width="87" height="145" viewBox="0 0 87 145" fill="none" xmlns="http://www.w3.org/2000/svg">
<g clip-path="url(#clip0)">
<path d="M74.8286 145H12.1715C5.44773 145 0 137.464 0 128.163V25.6417C0 16.3402 5.44773 8.80396 12.1715 8.80396H74.8286C81.5522 8.80396 87 16.3402 87 25.6417V128.163C87 137.464 81.5522 145 74.8286 145Z" fill="#F7BC28"/>
<path d="M73.1926 53.2296H13.8074C10.9772 53.2296 8.67053 50.0385 8.67053 46.1233V26.3433C8.67053 22.4281 10.9772 19.2371 13.8074 19.2371H73.1926C76.0227 19.2371 78.3294 22.4281 78.3294 26.3433V46.1233C78.3294 50.0385 76.0227 53.2296 73.1926 53.2296Z" fill="#E48929"/>
<path d="M73.1926 92.45H13.8076C11.419 92.45 9.48859 89.7794 9.48859 86.4752V66.6954C9.48859 63.3912 11.419 60.7207 13.8076 60.7207H73.1926C75.5811 60.7207 77.5116 63.3912 77.5116 66.6954V86.4752C77.5116 89.7794 75.5811 92.45 73.1926 92.45Z" fill="#E48929"/>
<path d="M73.1926 133.933H13.8074C10.9772 133.933 8.67053 130.742 8.67053 126.827V107.047C8.67053 103.132 10.9772 99.9409 13.8074 99.9409H73.1926C76.0227 99.9409 78.3294 103.132 78.3294 107.047V126.827C78.3294 130.742 76.0227 133.933 73.1926 133.933Z" fill="#E48929"/>
<path d="M43.9582 82.6051C46.3617 82.6051 48.3099 79.9099 48.3099 76.5852C48.3099 73.2604 46.3617 70.5652 43.9582 70.5652C41.5549 70.5652 39.6066 73.2604 39.6066 76.5852C39.6066 79.9099 41.5549 82.6051 43.9582 82.6051Z" fill="#F7BC28"/>
<path d="M43.9582 122.957C46.3617 122.957 48.3099 120.262 48.3099 116.937C48.3099 113.612 46.3617 110.917 43.9582 110.917C41.5549 110.917 39.6066 113.612 39.6066 116.937C39.6066 120.262 41.5549 122.957 43.9582 122.957Z" fill="#F7BC28"/>
<path d="M13.5292 10.6369C15.6886 27.1579 17.0628 44.3127 19.3532 60.7205H62.526C58.9923 31.9784 57.1601 21.6133 55.1314 3.16853C54.9024 1.17695 53.5772 -0.2262 52.1377 0.0227474L15.8359 6.26904C14.2981 6.54061 13.251 8.53219 13.5292 10.6369Z" fill="#FBFAF7"/>
<path d="M24.4411 24.691C32.6044 25.0758 40.7516 24.5779 48.8659 23.1973C50.1583 22.9709 50.1746 20.142 48.8659 20.3684C40.7679 21.7489 32.6044 22.2468 24.4411 21.862C23.1324 21.8167 23.1324 24.6457 24.4411 24.691Z" fill="#194429"/>
<path d="M26.0772 36.0069C34.2407 36.3915 42.3877 35.8936 50.5021 34.5132C51.7944 34.2868 51.8108 31.4579 50.5021 31.6843C42.4041 33.0647 34.2407 33.5626 26.0772 33.178C24.7685 33.1326 24.7685 35.9616 26.0772 36.0069Z" fill="#194429"/>
<path d="M27.7127 47.3228C35.8762 47.7076 44.0232 47.2097 52.1375 45.8291C53.4299 45.6029 53.4463 42.774 52.1375 43.0002C44.0395 44.3807 35.8762 44.8786 27.7127 44.4938C26.404 44.4487 26.404 47.2777 27.7127 47.3228Z" fill="#194429"/>
</g>
<defs>
<clipPath id="clip0">
<rect width="87" height="145" fill="white"/>
</clipPath>
</defs>
</svg>
