<svg width="136" height="160" viewBox="0 0 136 160" fill="none" xmlns="http://www.w3.org/2000/svg">
<g clip-path="url(#clip0)">
<path d="M10.1024 30.9088C4.28386 34.1349 0.576674 40.0377 0.306613 46.5497C-0.614047 68.5716 -1.48561 115.112 30.2219 138.735L57.3999 156.336C63.5989 160.351 71.6148 160.554 78.0473 156.886C86.4559 152.094 97.7125 144.877 104.219 137.385C104.513 137.038 104.82 136.716 105.139 136.393C109.264 132.319 140.321 99.7223 135.496 45.9763C134.944 39.8227 131.347 34.3021 125.848 31.2074L77.7281 4.16719C71.7376 0.797615 64.36 0.773715 58.3574 4.11939L10.1024 30.9088Z" fill="#F7BC28"/>
<path d="M25.0541 43.2267C20.7455 45.6164 17.9957 50.0016 17.7871 54.829C17.0996 71.163 16.4613 105.671 39.9689 123.2L60.1253 136.26C64.7284 139.236 70.6697 139.391 75.4327 136.667C81.6687 133.118 90.016 127.765 94.8402 122.209C95.0613 121.958 95.2821 121.707 95.5276 121.48C98.5842 118.457 121.527 94.0452 118.041 54.4228C117.82 51.8537 111.265 44.1707 109.031 42.426L75.2118 23.3915C70.768 20.8942 65.3055 20.8822 60.8495 23.3557L25.0541 43.2267Z" fill="#E48929"/>
<path d="M67.9941 21.5037V80.5669H116.617C116.617 80.5669 120.079 64.0894 118.053 54.4227C118.053 54.4227 117.489 47.7792 109.043 42.4261L75.2121 23.3917C75.2121 23.3917 71.7749 21.3842 67.9941 21.5037Z" fill="#FBFAF7"/>
<path d="M67.994 80.5668L67.9818 138.591C67.9818 138.591 64.0782 138.806 59.1802 135.627L42.9765 125.136C42.9765 125.136 29.2404 117.166 24.7722 103.975C24.7722 103.975 19.1376 91.8467 18.3643 79.4795L67.994 80.5668Z" fill="#FBFAF7"/>
</g>
<defs>
<clipPath id="clip0">
<rect width="136" height="160" fill="white"/>
</clipPath>
</defs>
</svg>
